<?xml version="1.0" encoding="utf-8"?>
<!-- Generator: Adobe Illustrator 21.0.0, SVG Export Plug-In . SVG Version: 6.00 Build 0)  -->
<svg version="1.1" id="Layer_1" xmlns="http://www.w3.org/2000/svg" xmlns:xlink="http://www.w3.org/1999/xlink" x="0px" y="0px"
	 viewBox="0 0 109.9 50" style="enable-background:new 0 0 109.9 50;" xml:space="preserve">
<style type="text/css">
	.st0{fill:#FFFFFF;}
	.st1{fill:none;stroke:#000000;stroke-miterlimit:10;}
</style>
<g>
	<path d="M7.8,7.3c-2.7,5.7-4,11.1-4,16.3c0,4.6,1.2,9.8,3.6,15.6l-3.5,1.5C1.3,34.4,0,28.8,0,23.7c0-6,1.5-12,4.4-18L7.8,7.3z
		 M108.5,11.7c0,4.4-4.9,6.7-14.8,6.8L71,18.8l-2.3,0.5c2.1,1.3,3.2,3.1,3.2,5.5c0,3.4-1.9,5.5-5.7,6.6c0.5,1.2,0.7,2.2,0.7,3.1
		c0,4-2.4,6.4-7.1,7.1c0.1,0.5,0.1,0.8,0.1,1c0,4.6-2.8,6.9-8.4,6.9l-3.4-0.2l-2.3-1c-2.7,0.9-5.2,1.3-7.5,1.3c-1.7,0-3-0.1-3.8-0.3
		c-0.2,0-0.8-0.3-1.8-0.9c-4.1-2.2-8.2-5.6-12.4-10.3h-9.1c-2-4.8-3-9.7-3-14.5c0-5.5,1.1-10.6,3.4-15.4h13.6
		C31.4,5.1,38.5,2.3,46.6,0L64,1.6L66.6,4l25.9,0.6c5,0.1,8.3,0.4,9.9,0.8C106.5,6.4,108.5,8.5,108.5,11.7z M72.7,13.8l-9.9-9.2
		l-16-1.4C43.1,4.3,35.9,7,25.2,11.3H13.7c-1.5,4-2.2,7.9-2.2,11.9c0,3.8,0.7,7.7,2,11.6H22c3.8,4.9,8.2,8.8,13.1,11.7
		c1.1,0.2,1.8,0.3,2.2,0.3c0.6,0,2-0.1,4.2-0.4L33.5,43c1.1-2.5,2.8-4.7,5.1-6.7l-3.9-1.8c2.3-4,4.9-6.4,7.7-7.3L38,25.3
		c2.4-4.8,5.5-7.5,9.4-8.3c-0.9,0.1-1.8,0.2-2.5,0.2c-0.5,0-1.2,0-2.2-0.1l-0.1-3.2c0.7,0,1.4,0.1,2,0.1c3.5,0,7.2-1.1,11-3.3
		c3.6,3.8,7.2,5.7,10.8,5.7C68.8,16.3,70.9,15.5,72.7,13.8z M56.7,41.6h-6.1l-8.5-3.8c-1.8,1.1-3.2,2.3-4.1,3.6l10.4,4.9
		c1.6,0,2.6,0.1,2.8,0.1C54.8,46.4,56.7,44.8,56.7,41.6z M63.5,34.6c0-0.8-0.3-1.7-0.9-2.7L53.3,32l-6.6-2.9
		c-3.5,0.5-5.9,1.8-7.4,4.1l12.3,5.4c3.8,0.1,5.8,0.1,6,0.1C61.6,38.6,63.5,37.3,63.5,34.6z M68.6,24.8c0-2-1.7-2.9-5.2-2.9h-8.2
		c-1.9-1.4-3.8-2-5.7-2c-3.2,0-5.6,1.4-7.2,4.1l12,4.9l6.7,0.1C66.1,28.9,68.6,27.6,68.6,24.8z M61.8,18.6c-2.1-0.8-4.4-2.2-6.9-4.1
		c-2.2,1.2-4.5,2-6.8,2.4c0.3,0,0.8-0.1,1.5-0.1c2.2,0,4.4,0.6,6.6,1.8L61.8,18.6z M105.4,11.8c0-2.5-4.1-3.9-12.4-4.1L69.9,7.1
		l7.3,6.8c-0.6,0.7-1.1,1.2-1.5,1.6l14.4-0.1C100.3,15.4,105.4,14.2,105.4,11.8z"/>
</g>
</svg>
