<?xml version="1.0" encoding="utf-8"?>
<!-- Generator: Adobe Illustrator 22.0.1, SVG Export Plug-In . SVG Version: 6.00 Build 0)  -->
<svg version="1.1" xmlns="http://www.w3.org/2000/svg" xmlns:xlink="http://www.w3.org/1999/xlink" x="0px" y="0px"
	 viewBox="0 0 329.5 431.4" style="enable-background:new 0 0 329.5 431.4;" xml:space="preserve">
<style type="text/css">
	.st0{fill:#EFEFEF;}
	.st1{fill:#FFBA49;}
	.st2{fill:#2B1547;}
	.st3{clip-path:url(#SVGID_2_);fill:#FFBA49;}
	.st4{fill:none;stroke:#FFBA49;stroke-miterlimit:10;}
	.st5{fill:#FFFFFF;}
	.st6{clip-path:url(#SVGID_4_);}
	.st7{clip-path:url(#SVGID_6_);}
	.st8{clip-path:url(#SVGID_8_);}
	.st9{clip-path:url(#SVGID_10_);}
</style>
<g id="BG">
</g>
<g id="Layer_1">
	<g>
		<path class="st1" d="M320.1,188c-4.2-36-23.2-69.5-52.1-92.1c-24.3-19-53.3-28.7-82.9-27.9c0-0.1-8.7,0.5-12.7,1
			c-32.2,4.1-62.1,21.4-82.1,47.4c-19,24.9-27.2,55.1-23.1,85.2c3.9,28.5,19.5,54.7,42.8,72c14.9,11.1,31.9,17.8,49.4,19.7
			c0,12.6,0,24.9,0,36.7c-27.1-2.2-53.1-12.6-75.3-30.5c-30.1-24.3-49.7-59.9-53.7-97.8c-4.2-39.7,7.9-79.1,33.9-111.1
			c26.9-33,66.1-54.3,107.8-58.5L170,11c-47.2,4.7-91.7,28.9-122.1,66.2C18.2,113.6,4.6,158.6,9.3,204c4.6,43.5,27,84.3,61.5,112.1
			c26,21,56.8,33.8,88.7,36c0,39.1,0,68.3,0,68.3h28.6c0,0,0-29.4,0-69c39.3-4.6,76.2-25.6,101.1-57.1
			C313.6,263.7,324.6,225.7,320.1,188z M216.5,155.8c13,8.8,22,22.7,24.6,38c2.9,16.8-1.1,33.9-11.5,48.4
			c-10.1,14-24.9,24.1-41.4,28.2c0-12.7,0-25.5,0-37.9c8.3-4.4,15-12.1,17.7-20.7c2.5-8.2,1.3-16.4-3.5-23.2
			c-2.8-4-8.3-7.4-14.1-8.6c0-12.6,0-23.8,0-33.1C198.1,146.9,207.9,149.9,216.5,155.8z M159.5,212.5c-6.5-3.7-11.6-10.5-13.5-17.8
			c-3-11.6,0.7-21.2,4.4-27.2c2.4-3.9,5.6-7.4,9.1-10.4C159.6,172.1,159.6,191.3,159.5,212.5z M88.4,198.7
			c-3.4-24.4,3.3-49,18.9-69.4c14.2-18.5,34.3-31.6,56.6-37.2c-0.2,1-0.4,2.1-0.7,3.3c-2.3,11.9-3.2,24.3-3.4,36.6
			c-11.2,5.4-20.9,13.9-27.3,24.3c-8.3,13.5-10.8,29-6.9,43.8c3.5,13.5,13,25.4,25.3,31.8c2.9,1.5,5.8,2.6,8.8,3.4
			c0,11.9,0,24.2,0,36.5c-13-1.8-25.6-7-36.7-15.3C104.1,242.6,91.5,221.5,88.4,198.7z M272.7,280.7c-21,26.4-51.6,43.9-84.5,48.5
			c0-11.9,0-24.3,0-37c23.4-4.5,44.7-18.1,58.7-37.6c13.7-19.1,19.1-42,15.2-64.5c-3.7-21-16-40-33.7-52
			c-12.3-8.3-26.2-12.6-40.3-12.6c0,0-1.7-23.4,4.3-36.3c22.3,0.9,44,8.9,62.5,23.4c24.4,19.1,40.5,47.5,44.1,77.8
			C302.8,222.5,293.4,254.6,272.7,280.7z"/>
	</g>
</g>
</svg>
